<?xml version="1.0" standalone="no"?>
<!DOCTYPE svg PUBLIC "-//W3C//DTD SVG 20010904//EN"
 "http://www.w3.org/TR/2001/REC-SVG-20010904/DTD/svg10.dtd">
<svg version="1.0" xmlns="http://www.w3.org/2000/svg"
 width="500.000000pt" height="500.000000pt" viewBox="0 0 500.000000 500.000000"
 preserveAspectRatio="xMidYMid meet">

<g transform="translate(0.000000,500.000000) scale(0.100000,-0.100000)"
fill="#000000" stroke="none">
<path d="M2411 3341 c-12 -12 -21 -25 -21 -30 0 -17 40 -59 70 -71 39 -16 40
-40 0 -40 -19 0 -33 -7 -40 -19 -14 -27 -13 -71 3 -71 7 0 51 -5 97 -11 47 -6
159 -16 249 -22 l164 -12 3 -164 c2 -91 6 -173 10 -183 5 -16 18 -18 116 -18
l110 0 -6 48 c-18 129 -31 314 -24 318 13 8 16 -12 22 -148 8 -169 15 -218 32
-218 18 0 18 57 0 163 -10 61 -10 80 -1 83 8 4 10 27 7 79 l-5 74 204 3 c163
2 208 0 221 -11 23 -18 189 -10 238 12 33 14 17 16 -245 18 -303 2 -267 9 133
24 l193 7 14 29 c8 15 15 35 15 43 0 24 -29 46 -61 46 -22 0 -29 5 -29 20 0
19 -5 20 -72 16 l-73 -5 69 10 c38 5 72 12 75 14 3 3 -2 13 -11 21 -14 14 -29
14 -130 4 -114 -12 -829 -8 -1165 6 -134 6 -142 5 -162 -15z m1072 -52 c-18
-5 -53 -5 -85 0 -52 8 -51 9 32 9 67 0 78 -2 53 -9z"/>
<path d="M1435 3260 c-127 -15 -205 -43 -263 -95 -74 -66 -86 -106 -79 -252 3
-65 11 -139 17 -165 l12 -48 144 0 c79 0 144 2 144 4 0 3 -6 35 -14 73 -21
100 -23 162 -6 174 11 8 7 9 -13 4 -21 -4 -28 -2 -25 7 8 24 101 36 275 37
168 1 303 -11 346 -30 20 -9 20 -9 -3 -4 -14 2 -68 7 -120 10 l-95 4 110 -14
c152 -19 187 -31 231 -76 20 -21 42 -35 47 -32 6 3 7 1 3 -5 -4 -6 1 -26 10
-44 9 -18 21 -44 26 -58 7 -21 7 -20 3 8 -7 47 3 39 16 -13 11 -43 32 -59 42
-32 4 10 6 10 6 0 1 -9 24 -13 82 -13 l81 0 -7 48 c-4 26 -15 72 -26 102 -24
68 -23 78 2 22 10 -24 24 -72 31 -108 9 -51 15 -64 30 -64 38 0 13 145 -45
254 -84 161 -251 259 -502 296 -100 15 -366 20 -460 10z m661 -288 c21 -16 46
-37 54 -48 8 -10 -3 -4 -24 15 -22 18 -53 39 -70 47 -17 7 -24 13 -15 14 9 0
34 -13 55 -28z"/>
<path d="M3373 3073 c15 -2 39 -2 55 0 15 2 2 4 -28 4 -30 0 -43 -2 -27 -4z"/>
<path d="M1503 2973 c9 -2 25 -2 35 0 9 3 1 5 -18 5 -19 0 -27 -2 -17 -5z"/>
<path d="M1428 2963 c6 -2 18 -2 25 0 6 3 1 5 -13 5 -14 0 -19 -2 -12 -5z"/>
<path d="M1180 2515 c0 -63 12 -86 23 -45 3 13 14 20 29 20 30 0 48 17 48 47
0 26 -27 43 -69 43 l-31 0 0 -65z m54 39 c27 -10 20 -44 -9 -44 -18 0 -25 5
-25 18 0 29 9 36 34 26z"/>
<path d="M1370 2531 c0 -55 17 -81 54 -81 36 0 56 30 56 83 0 35 -4 47 -15 47
-11 0 -15 -12 -15 -49 0 -34 -5 -51 -15 -55 -23 -9 -45 22 -45 65 0 21 -4 39
-10 39 -5 0 -10 -22 -10 -49z"/>
<path d="M1575 2564 c-22 -22 -15 -36 29 -58 28 -13 34 -21 25 -27 -8 -4 -24
-6 -35 -3 -12 3 -25 1 -28 -5 -10 -16 61 -26 80 -11 25 21 13 53 -23 64 -43
12 -42 35 1 27 5 -1 16 1 25 4 13 5 14 7 1 15 -23 15 -57 12 -75 -6z"/>
<path d="M1750 2515 c0 -51 3 -65 15 -65 10 0 15 10 15 30 0 25 4 30 25 30 21
0 25 -5 25 -30 0 -20 5 -30 15 -30 12 0 15 14 15 65 0 51 -3 65 -15 65 -9 0
-15 -9 -15 -25 0 -20 -5 -25 -25 -25 -20 0 -25 5 -25 25 0 16 -6 25 -15 25
-12 0 -15 -14 -15 -65z"/>
<path d="M1960 2515 c0 -37 4 -65 10 -65 6 0 10 6 10 13 0 6 4 19 10 27 7 12
13 9 30 -13 12 -15 28 -27 37 -27 12 0 9 9 -12 36 l-27 36 28 29 c39 40 9 38
-33 -3 l-33 -32 0 32 c0 18 -4 32 -10 32 -6 0 -10 -28 -10 -65z"/>
<path d="M2171 2536 c-29 -66 -34 -86 -21 -86 6 0 13 7 16 15 4 9 19 15 35 15
17 0 32 -6 35 -15 5 -13 34 -22 34 -11 0 20 -56 126 -66 126 -7 0 -22 -20 -33
-44z m48 -28 c1 -5 -8 -8 -19 -8 -17 0 -18 3 -8 26 11 23 13 24 19 7 4 -10 8
-21 8 -25z"/>
<path d="M2350 2515 c0 -51 3 -65 15 -65 8 0 15 9 15 20 0 26 17 25 40 -2 10
-13 22 -20 26 -16 4 4 1 15 -7 24 -11 13 -11 18 -1 21 15 6 16 55 0 71 -7 7
-29 12 -50 12 l-38 0 0 -65z m70 30 c15 -18 5 -35 -21 -35 -14 0 -19 7 -19 25
0 28 21 33 40 10z"/>
<path d="M2640 2570 c0 -5 9 -10 20 -10 18 0 20 -7 20 -55 0 -42 3 -55 15 -55
12 0 15 13 15 55 0 48 2 55 20 55 11 0 20 5 20 10 0 6 -25 10 -55 10 -30 0
-55 -4 -55 -10z"/>
<path d="M2830 2515 c0 -51 3 -65 15 -65 8 0 15 9 15 20 0 26 17 25 40 -2 10
-13 22 -20 26 -16 4 4 1 15 -7 24 -11 13 -11 18 -1 21 15 6 16 55 0 71 -7 7
-29 12 -50 12 l-38 0 0 -65z m70 30 c15 -18 5 -35 -21 -35 -14 0 -19 7 -19 25
0 28 21 33 40 10z"/>
<path d="M3020 2515 c0 -51 3 -65 15 -65 12 0 15 14 15 65 0 51 -3 65 -15 65
-12 0 -15 -14 -15 -65z"/>
<path d="M3130 2577 c0 -2 11 -30 24 -63 37 -91 45 -87 103 54 3 6 -1 12 -10
12 -8 0 -22 -21 -33 -47 l-18 -48 -20 48 c-11 26 -26 47 -33 47 -7 0 -13 -1
-13 -3z"/>
<path d="M3340 2515 l0 -65 45 0 c25 0 45 5 45 10 0 6 -13 10 -30 10 -23 0
-30 4 -30 20 0 15 7 20 25 20 14 0 25 5 25 10 0 6 -11 10 -25 10 -16 0 -25 6
-25 15 0 10 10 15 30 15 17 0 30 5 30 10 0 6 -20 10 -45 10 l-45 0 0 -65z"/>
<path d="M3520 2515 l0 -65 38 0 c53 0 82 23 82 65 0 42 -29 65 -82 65 l-38 0
0 -65z m92 22 c18 -28 4 -53 -35 -62 -27 -7 -27 -6 -27 40 0 46 0 47 27 40 15
-3 31 -12 35 -18z"/>
<path d="M3730 2515 c0 -51 3 -65 15 -65 12 0 15 14 15 65 0 51 -3 65 -15 65
-12 0 -15 -14 -15 -65z"/>
<path d="M1186 2108 c11 -461 41 -718 84 -718 28 0 59 94 85 253 10 60 22 43
29 -43 8 -102 12 -110 47 -110 22 0 30 5 33 23 8 37 19 384 16 510 l-2 119 26
-17 c16 -11 48 -18 81 -19 46 -1 55 -4 57 -21 3 -18 13 -21 93 -26 l90 -5 -97
-2 c-98 -2 -112 -8 -81 -33 12 -11 50 -14 152 -12 202 2 333 43 459 143 47 37
121 124 122 143 0 4 -58 7 -130 7 -112 0 -134 -3 -162 -20 -18 -11 -37 -20
-43 -20 -5 1 6 9 25 20 l35 19 -45 1 c-25 0 -61 -5 -80 -10 -19 -6 -100 -17
-178 -25 -79 -7 -146 -16 -148 -18 -9 -8 186 -19 249 -13 51 4 55 3 22 -4 -57
-13 -291 -12 -334 1 -28 8 -45 7 -78 -4 l-43 -15 0 44 0 44 -145 0 -144 0 5
-192z m811 136 c-3 -3 -12 -4 -19 -1 -8 3 -5 6 6 6 11 1 17 -2 13 -5z m-34
-181 c-7 -2 -19 -2 -25 0 -7 3 -2 5 12 5 14 0 19 -2 13 -5z"/>
<path d="M3000 2286 c0 -8 9 -57 20 -110 11 -53 29 -160 40 -238 22 -149 50
-270 75 -318 31 -61 80 -45 111 36 9 24 20 44 23 44 4 0 12 -13 18 -30 11 -30
39 -39 77 -24 30 12 18 139 -60 612 -3 23 -11 42 -16 42 -6 0 -8 -16 -5 -37
l6 -38 -16 38 -16 37 -128 0 c-104 0 -129 -3 -129 -14z"/>
</g>
</svg>
