<?xml version="1.0" standalone="no"?>
<!DOCTYPE svg PUBLIC "-//W3C//DTD SVG 20010904//EN"
 "http://www.w3.org/TR/2001/REC-SVG-20010904/DTD/svg10.dtd">
<svg version="1.0" xmlns="http://www.w3.org/2000/svg"
 width="500.000000pt" height="500.000000pt" viewBox="0 0 500.000000 500.000000"
 preserveAspectRatio="xMidYMid meet">

<g transform="translate(0.000000,500.000000) scale(0.100000,-0.100000)"
fill="#000000" stroke="none">
<path d="M3213 4726 c9 -7 17 -16 17 -19 0 -4 -8 -4 -17 -1 -14 5 -15 4 -4 -4
8 -6 23 -9 33 -7 11 2 18 -2 18 -11 0 -9 5 -12 13 -8 10 6 10 4 0 -7 -17 -17
-16 -26 3 -33 8 -3 12 -2 9 4 -3 6 1 7 10 4 8 -4 14 -14 13 -22 -2 -9 4 -17
12 -18 36 -3 40 -5 40 -19 0 -8 5 -15 12 -15 6 0 23 -10 37 -22 22 -20 23 -20
12 -3 -8 11 0 5 18 -14 17 -18 31 -30 31 -25 0 5 5 1 11 -8 5 -10 15 -18 22
-18 7 0 28 -15 47 -33 19 -19 38 -34 42 -35 8 -2 49 -35 80 -64 10 -10 18 -15
18 -11 0 12 271 -269 310 -321 19 -26 44 -59 56 -74 94 -120 235 -377 292
-532 87 -236 123 -436 127 -700 7 -478 -155 -939 -460 -1309 l-49 -60 -18 72
c-12 53 -14 83 -8 112 15 65 11 105 -12 144 -22 34 -23 48 -24 221 -2 196 -17
298 -63 421 -42 110 -155 204 -367 305 -410 194 -452 222 -505 334 -26 56 -62
90 -106 104 -21 7 -23 14 -23 72 0 52 5 72 24 100 13 20 32 65 42 100 11 37
24 64 32 64 45 0 121 81 163 174 32 71 22 203 -17 233 -14 10 -14 18 5 72 12
34 21 67 21 75 0 7 7 19 15 26 9 7 15 35 17 73 4 57 5 59 12 28 8 -28 10 -31
19 -16 19 34 -16 161 -64 233 l-30 44 28 -22 c18 -14 29 -17 31 -10 6 17 -50
82 -89 104 -33 18 -34 20 -34 85 0 36 -4 75 -10 86 -7 16 -11 5 -15 -50 l-5
-70 -33 58 c-70 124 -170 195 -288 205 -35 2 -64 2 -64 -1 0 -4 17 -16 38 -27
20 -12 28 -18 17 -15 -52 17 -146 26 -205 20 -105 -10 -195 -42 -357 -126 -84
-44 -162 -79 -173 -79 -40 0 -14 -25 29 -28 l42 -3 -65 -66 c-82 -82 -126
-165 -126 -237 l1 -51 21 43 c11 23 22 41 23 40 2 -2 -4 -35 -13 -75 -13 -63
-13 -79 -1 -125 8 -29 19 -52 24 -51 6 1 14 21 19 45 l8 43 17 -68 c10 -37 27
-81 39 -97 27 -36 27 -38 2 -58 -29 -24 -47 -125 -32 -178 l11 -39 -5 38 c-6
46 14 153 32 168 8 6 20 9 28 6 19 -7 51 -71 60 -117 l7 -35 -25 39 c-42 66
-77 72 -75 13 0 -18 3 -27 5 -21 3 7 14 9 25 7 18 -5 20 -11 15 -48 -6 -37 -3
-47 20 -74 28 -34 42 -36 25 -3 -11 21 -4 82 9 82 4 0 13 -30 20 -67 21 -115
23 -143 10 -158 -10 -12 -9 -15 4 -15 9 0 16 -7 16 -15 0 -28 39 -128 65 -165
20 -29 25 -48 25 -101 l0 -65 -45 -22 c-33 -16 -51 -34 -74 -74 -40 -72 -90
-133 -126 -151 -108 -57 -222 -121 -244 -136 -14 -10 -80 -47 -146 -81 -220
-116 -271 -159 -331 -285 -60 -127 -77 -217 -76 -405 0 -142 -2 -174 -20 -228
-19 -55 -20 -69 -9 -116 12 -53 5 -390 -8 -384 -24 11 -112 87 -122 105 -7 13
-14 21 -17 19 -6 -7 -37 25 -51 52 -6 12 -18 22 -27 22 -8 0 -18 9 -22 19 -4
11 -27 41 -52 67 -25 27 -45 51 -45 54 0 3 -16 22 -35 43 -19 21 -39 47 -45
56 -5 10 -16 24 -23 32 -7 8 -22 29 -33 47 -12 21 -24 30 -32 26 -6 -4 -9 -4
-5 1 7 7 -18 65 -28 65 -3 0 -2 -5 2 -12 4 -7 3 -8 -4 -4 -7 4 -12 18 -12 32
0 14 -3 23 -7 21 -5 -3 -17 5 -28 16 -11 11 -14 17 -8 13 9 -5 11 -2 7 8 -9
22 -34 28 -35 8 -1 -9 -1 -21 0 -25 1 -5 -3 -6 -8 -3 -5 3 -7 16 -3 28 3 14 1
19 -6 14 -6 -3 -14 -2 -17 4 -4 6 -1 9 5 8 7 -2 14 5 15 15 3 15 1 16 -12 5
-13 -10 -17 -10 -20 0 -3 6 -9 10 -14 6 -8 -4 -13 15 -11 37 1 3 -6 6 -13 6
-10 0 -11 -4 -6 -11 10 -12 11 -16 11 -42 0 -9 5 -12 12 -8 7 4 8 3 4 -5 -15
-23 83 -243 182 -409 98 -164 195 -286 349 -439 l144 -143 -16 -29 c-19 -38
-19 -84 0 -120 11 -22 12 -37 5 -62 -14 -47 -13 -52 15 -93 19 -29 25 -50 25
-94 0 -39 8 -73 24 -107 24 -53 51 -77 101 -89 17 -4 44 -23 61 -42 18 -19 41
-34 53 -34 12 0 46 -14 77 -31 l55 -31 -7 -45 c-5 -32 -2 -55 11 -84 l18 -39
474 0 c260 0 473 2 473 5 0 3 -5 14 -12 25 -16 25 0 121 33 205 24 60 24 60
73 67 52 7 127 35 218 80 32 15 73 28 91 28 19 0 54 7 78 16 24 9 62 16 83 15
22 0 48 5 58 10 29 15 23 -13 -9 -43 -54 -50 -89 -61 -170 -54 -72 7 -101 -5
-45 -18 32 -8 266 -97 335 -128 51 -23 58 -42 30 -77 -18 -21 -18 -21 -105 -4
-48 9 -91 14 -94 10 -4 -4 -3 -23 3 -42 14 -44 -6 -73 -57 -85 -21 -5 73 -8
238 -9 l273 -1 -6 47 c-4 27 -9 55 -11 64 -5 17 156 159 179 159 7 0 33 19 58
42 26 24 62 52 80 63 20 12 38 33 44 52 6 18 20 43 32 55 33 34 54 94 63 173
4 38 15 90 24 114 14 36 15 52 5 100 l-11 58 107 104 c196 190 320 361 444
609 114 229 181 444 215 688 21 150 21 468 0 611 -106 725 -546 1342 -1190
1668 -117 59 -229 108 -289 124 -26 7 -28 7 -12 -5z m-427 -611 c-4 -14 -3
-25 2 -25 4 0 23 11 42 25 19 14 37 25 41 25 12 0 29 -61 29 -107 0 -42 -1
-43 -22 -32 -32 17 -178 24 -221 10 -68 -23 -88 -64 -41 -82 21 -7 31 -6 45 7
15 13 32 16 91 11 40 -2 91 -11 113 -18 39 -14 40 -15 37 -59 -6 -80 -9 -84
-43 -56 -35 30 -106 43 -150 27 -18 -6 -35 -9 -37 -6 -11 11 12 20 66 26 l57
6 -57 2 c-41 1 -61 -4 -74 -16 -11 -11 -13 -18 -5 -21 8 -3 8 -9 1 -23 -13
-23 2 -26 20 -4 20 24 33 18 26 -11 -4 -16 -1 -35 8 -49 12 -18 12 -25 3 -28
-6 -3 4 -6 24 -6 45 -1 66 21 71 73 l3 40 31 -31 c33 -34 38 -56 38 -178 0
-63 -4 -80 -47 -171 -26 -55 -47 -109 -47 -120 0 -10 -4 -25 -9 -32 -5 -9 -10
6 -13 43 -7 78 -18 86 -130 95 -97 7 -127 -1 -115 -33 6 -15 19 -19 107 -33
76 -12 13 -22 -145 -22 -160 -1 -218 11 -115 23 68 7 110 26 110 49 0 20 -9
22 -111 16 -110 -6 -129 -21 -129 -101 0 -26 -4 -50 -9 -53 -11 -7 -69 94 -77
134 -4 16 -11 27 -18 24 -29 -11 -86 257 -86 409 0 59 25 147 43 147 12 0 8
-27 -10 -59 -22 -37 -14 -47 24 -28 51 26 193 48 245 39 51 -10 58 -8 58 17 0
9 17 25 37 36 21 11 57 35 80 52 24 18 43 29 43 24 0 -5 -7 -14 -15 -21 -26
-22 -19 -40 13 -30 15 4 39 11 53 14 14 3 57 28 95 56 38 27 70 50 72 50 2 0
1 -11 -2 -25z m-371 -22 c-4 -10 -9 -33 -12 -51 -3 -18 -8 -34 -12 -36 -3 -1
-31 3 -61 9 l-55 12 46 21 c25 12 54 30 64 42 22 25 40 26 30 3z m319 -787 c8
-30 6 -43 -9 -69 -26 -45 -38 -55 -89 -78 -24 -10 -46 -24 -48 -30 -3 -8 -9
-6 -20 4 -8 9 -18 13 -22 10 -3 -4 -6 1 -6 11 0 10 -5 14 -11 10 -6 -3 -15 -1
-19 6 -6 10 -14 8 -36 -7 -51 -36 -68 -36 -115 -4 -61 41 -79 65 -85 114 -7
62 2 70 66 56 66 -14 317 -8 345 9 29 17 39 10 49 -32z m-461 -270 c59 -87
119 -148 196 -197 48 -31 68 -31 144 -3 23 9 53 18 66 21 22 5 23 3 17 -20 -3
-14 -35 -86 -71 -159 -36 -73 -65 -134 -65 -135 0 -2 12 6 28 17 35 26 133 47
162 34 19 -8 10 -20 -114 -148 l-135 -138 -36 22 c-39 24 -172 176 -204 234
-18 32 -27 66 -18 66 27 0 111 -41 140 -68 27 -27 37 -32 37 -19 0 23 -70 72
-123 85 -40 11 -45 16 -86 93 -35 65 -41 83 -30 90 11 6 15 45 17 164 2 85 7
153 11 151 4 -3 33 -43 64 -90z m-283 -237 c-5 -19 -16 -101 -24 -184 -17
-164 -26 -207 -44 -213 -16 -5 -15 12 3 96 8 38 21 116 30 173 16 102 33 174
41 167 2 -2 -1 -20 -6 -39z m-34 -15 c-3 -9 -6 -21 -6 -28 0 -7 -16 -20 -35
-29 -43 -21 -44 -12 -4 36 31 38 56 50 45 21z m-137 -91 c20 -18 19 -19 -63
-58 l-84 -40 16 33 c14 28 81 82 103 82 4 0 16 -8 28 -17z m109 -66 c2 -9 -16
-22 -51 -36 -44 -18 -56 -28 -63 -53 -11 -37 -23 -43 -48 -25 -19 14 -18 44 3
77 8 12 13 12 23 2 21 -21 32 -14 51 32 l18 44 32 -13 c18 -7 33 -20 35 -28z
m-315 -39 c21 -11 21 -11 2 -19 -11 -4 -33 -8 -50 -8 l-30 -1 25 20 c30 23 26
23 53 8z m1761 -13 c4 -13 2 -14 -14 -5 -23 13 -26 20 -6 20 8 0 16 -7 20 -15z
m126 -17 c33 -55 24 -61 -50 -27 l-44 20 29 19 c40 25 42 25 65 -12z m-1809
-7 l24 -19 -25 -10 c-14 -5 -45 -13 -70 -17 l-45 -7 34 36 c40 41 50 43 82 17z
m1594 -21 c14 -27 14 -30 -4 -40 -30 -15 -38 -12 -45 16 -7 25 7 54 25 54 5 0
15 -13 24 -30z m-206 -47 c7 -27 14 -56 17 -65 4 -13 0 -18 -14 -18 -20 0 -32
38 -32 108 0 46 15 32 29 -25z m348 20 c49 -62 48 -65 -9 -42 -29 12 -64 25
-77 30 l-25 10 30 19 c41 26 49 25 81 -17z m-1927 -3 c25 -13 31 -20 20 -24
-26 -9 -114 -43 -134 -51 -17 -8 -17 -7 -1 24 20 39 51 71 68 71 6 -1 28 -9
47 -20z m404 -17 c-4 -21 -9 -41 -11 -46 -5 -8 -63 30 -63 41 0 6 63 39 78 41
2 1 0 -16 -4 -36z m1750 6 c38 -45 32 -51 -26 -28 -29 12 -59 24 -67 27 -11 4
-10 8 5 19 29 21 60 15 88 -18z m-1335 -43 c-9 -9 -49 24 -49 40 0 11 8 8 27
-10 15 -14 25 -28 22 -30z m891 4 c0 -8 -42 -38 -60 -42 -6 -2 -17 12 -25 30
-8 18 -10 30 -5 27 6 -3 10 -2 10 3 0 6 15 6 40 0 22 -6 40 -14 40 -18z
m-1578 -30 c80 -40 108 -44 108 -16 0 29 21 27 70 -5 28 -18 50 -34 50 -36 0
-5 -99 -53 -111 -53 -7 0 -36 16 -65 36 l-53 37 -95 -47 -95 -46 -46 22 c-43
21 -56 40 -35 53 5 3 31 -3 56 -14 25 -12 50 -19 55 -16 4 3 23 32 41 65 18
33 34 60 36 60 2 0 40 -18 84 -40z m2011 -28 c9 -21 17 -41 17 -44 0 -3 -25 3
-55 15 -30 11 -55 24 -55 28 0 9 49 38 66 39 5 0 18 -17 27 -38z m-318 -52 c2
0 38 19 80 41 63 34 79 39 86 28 17 -25 46 -83 53 -106 7 -21 5 -21 -70 8
l-77 30 -38 -26 c-48 -31 -52 -31 -129 4 l-63 28 53 36 54 36 23 -39 c13 -22
26 -40 28 -40z m-1985 61 c0 -5 -11 -16 -25 -25 -24 -16 -25 -16 -25 9 0 20 5
25 25 25 14 0 25 -4 25 -9z m671 -15 c-20 -21 -26 -23 -42 -13 -22 13 -26 29
-6 21 7 -2 24 0 38 5 35 14 35 14 10 -13z m142 -16 c7 0 21 -6 31 -13 17 -13
17 -15 -6 -41 l-23 -28 -48 42 c-26 23 -47 45 -47 50 0 15 34 17 57 3 12 -7
28 -13 36 -13z m887 -37 c-51 -44 -57 -45 -79 -22 -26 29 -19 39 28 39 23 0
44 6 51 15 9 11 17 12 23 6 6 -6 -1 -19 -23 -38z m-1018 -30 c21 -20 38 -40
38 -44 0 -3 -44 -9 -97 -13 -54 -3 -111 -9 -127 -13 l-28 -6 28 44 c16 24 29
46 31 48 3 5 65 19 93 20 15 1 38 -12 62 -36z m219 -35 c-20 -4 -49 -7 -65 -7
l-29 -1 38 30 37 30 27 -23 28 -22 -36 -7z m-491 -50 c0 -5 -23 -8 -51 -8 -28
0 -59 -5 -70 -11 -15 -8 -27 -6 -52 8 -38 22 -43 49 -9 46 14 -2 25 4 29 15
15 41 23 41 88 -2 36 -22 65 -44 65 -48z m1209 60 c17 -18 28 -34 27 -36 -2
-2 -32 0 -66 4 l-61 7 27 28 c15 16 31 29 35 29 5 0 22 -14 38 -32z m243 -29
c20 -29 36 -55 35 -56 -3 -2 -180 36 -184 41 -6 6 91 76 102 73 6 -2 27 -28
47 -58z m252 -19 c25 0 10 -17 -36 -41 -32 -16 -50 -19 -90 -14 -57 8 -56 11
22 63 45 30 45 30 66 11 11 -10 28 -19 38 -19z m166 36 c0 -2 -12 -25 -26 -50
-25 -44 -28 -46 -47 -33 -34 22 -31 34 15 61 40 24 58 31 58 22z m-2237 -36
c5 -4 1 -20 -9 -35 l-18 -28 -12 34 c-7 19 -13 38 -13 42 -1 9 39 -1 52 -13z
m92 -42 c25 -12 45 -25 45 -30 0 -7 -64 -28 -87 -28 -8 0 -13 15 -13 40 0 22
2 40 5 40 2 0 25 -10 50 -22z m875 -37 c0 -5 -80 -12 -177 -15 -98 -4 -232
-13 -298 -21 -217 -26 -261 -28 -249 -16 6 7 56 16 110 22 54 5 110 12 124 15
24 7 259 19 413 22 42 1 77 -2 77 -7z m705 -28 c162 -28 282 -43 338 -43 26 0
47 -4 47 -10 0 -14 -84 -12 -192 5 -51 8 -153 24 -227 35 -96 15 -178 21 -297
21 -114 0 -163 3 -158 11 11 17 351 4 489 -19z m-690 -42 c-6 -5 -107 -14
-225 -20 -118 -6 -251 -17 -295 -25 -123 -22 -222 -30 -210 -18 10 10 100 22
325 42 350 31 419 35 405 21z m653 -31 c125 -17 251 -35 279 -41 29 -6 62 -8
73 -4 11 3 28 1 37 -5 29 -17 -108 -6 -312 26 -145 22 -214 28 -357 28 -180 1
-243 12 -100 19 42 1 94 4 115 5 21 1 140 -12 265 -28z m-1432 13 c-13 -14
-136 -51 -136 -42 0 5 1 9 3 9 1 0 27 9 57 20 58 20 88 25 76 13z m1917 -24
c-8 -8 -16 -8 -30 0 -16 9 -14 10 12 11 21 0 26 -3 18 -11z m-1962 -76 c-32
-14 -58 -20 -63 -15 -10 10 91 52 107 43 5 -3 -15 -15 -44 -28z m1465 -111
c-4 -3 -13 3 -21 14 -14 19 -14 19 -15 -1 -1 -32 -20 4 -20 38 0 33 13 35 34
5 l16 -22 2 29 c1 20 3 15 5 -14 3 -23 2 -46 -1 -49z m-76 27 c0 -24 -4 -38
-10 -34 -5 3 -10 24 -10 46 0 24 4 38 10 34 6 -3 10 -24 10 -46z m142 39 c-7
-7 -12 -24 -12 -39 0 -15 -5 -31 -12 -35 -8 -5 -9 3 -5 28 3 21 1 40 -6 47 -8
8 -3 11 18 11 23 0 26 -3 17 -12z m-222 -18 c0 -11 5 -20 10 -20 6 0 10 9 10
20 0 11 4 20 9 20 11 0 3 -70 -10 -84 -8 -9 -16 7 -33 62 -5 13 -3 22 3 22 6
0 11 -9 11 -20z m274 -21 c7 -44 1 -63 -13 -40 -5 8 -14 10 -22 6 -9 -6 -11
-3 -6 9 4 10 10 29 13 42 9 36 21 29 28 -17z m61 21 c3 -5 -1 -10 -9 -10 -11
0 -16 -9 -16 -30 0 -16 5 -30 11 -30 6 0 8 9 4 21 -5 15 -4 19 4 15 19 -12 13
-46 -8 -46 -21 0 -33 22 -26 45 3 8 7 22 10 30 5 17 21 20 30 5z m65 -20 c13
-8 12 -10 -4 -10 -15 0 -16 -3 -7 -14 9 -11 8 -15 -5 -20 -13 -5 -14 -9 -4
-21 10 -12 9 -15 -4 -15 -17 0 -19 11 -10 59 7 33 11 36 34 21z m-240 -101 c0
-6 -4 -7 -10 -4 -5 3 -10 11 -10 16 0 6 5 7 10 4 6 -3 10 -11 10 -16z m40 -23
c0 -8 -4 -18 -10 -21 -5 -3 -10 3 -10 14 0 12 5 21 10 21 6 0 10 -6 10 -14z
m-42 -47 c17 -27 5 -40 -14 -15 -8 11 -14 23 -14 28 0 15 15 8 28 -13z m58 2
c16 13 16 12 5 -8 -10 -20 -31 -32 -31 -19 0 2 -3 13 -6 23 -5 14 -4 15 4 4 9
-13 13 -13 28 0z m-153 -111 c-3 -12 -8 -19 -11 -16 -5 6 5 36 12 36 2 0 2 -9
-1 -20z m34 -22 c-3 -7 -5 -2 -5 12 0 14 2 19 5 13 2 -7 2 -19 0 -25z m43 12
c0 -11 -4 -20 -8 -20 -4 0 -8 9 -8 20 0 11 4 20 8 20 4 0 8 -9 8 -20z m61 -13
c-13 -13 -26 -3 -16 12 3 6 11 8 17 5 6 -4 6 -10 -1 -17z m72 9 c12 1 17 -2
13 -11 -3 -8 0 -16 7 -19 7 -2 2 -5 -10 -5 -12 -1 -27 8 -33 18 -11 22 -14 42
-2 25 4 -6 15 -10 25 -8z m-1252 -1054 c161 -82 332 -148 478 -184 47 -11 88
-23 90 -25 3 -2 -5 -20 -16 -41 -19 -34 -49 -143 -55 -202 -3 -22 -7 -25 -43
-24 -22 1 -65 11 -95 22 -30 11 -135 37 -233 57 -189 39 -384 93 -437 120 -72
37 -73 144 -1 251 39 58 100 104 137 104 12 0 91 -35 175 -78z m1233 -37 c-7
-16 -43 -40 -50 -33 -5 6 35 48 46 48 5 0 7 -7 4 -15z m184 -12 c20 -9 55 -36
79 -58 39 -38 43 -46 43 -91 0 -57 -17 -78 -98 -119 -45 -23 -46 -23 -81 -5
-20 10 -67 30 -106 45 -38 15 -72 29 -74 31 -2 2 19 26 47 54 35 35 52 61 57
87 13 72 59 91 133 56z"/>
<path d="M2410 3905 c0 -3 7 -20 16 -38 9 -17 20 -54 24 -82 6 -43 8 -45 9
-14 1 38 -25 125 -40 135 -5 3 -9 2 -9 -1z"/>
<path d="M2225 3866 c-39 -13 -38 -13 28 -8 48 3 72 1 85 -9 10 -8 7 -4 -6 9
-26 25 -48 26 -107 8z"/>
<path d="M2210 3840 c-36 -9 -84 -55 -74 -71 3 -5 18 4 34 21 15 16 38 30 51
30 18 0 20 -3 11 -12 -15 -15 -16 -65 0 -74 8 -5 6 -10 -8 -15 -12 -5 0 -8 35
-8 30 -1 51 2 48 5 -3 4 0 16 8 28 8 11 15 31 15 44 0 21 2 22 15 12 21 -18
19 4 -3 23 -22 20 -86 28 -132 17z"/>
<path d="M2450 3670 c0 -11 -10 -49 -22 -86 -24 -75 -19 -97 26 -101 14 -1 24
2 21 8 -4 5 -17 9 -31 9 -28 0 -29 8 -9 56 16 39 31 134 21 134 -3 0 -6 -9 -6
-20z"/>
<path d="M2534 3495 c-18 -14 -18 -14 9 -15 15 0 27 4 27 9 0 18 -17 20 -36 6z"/>
<path d="M2457 3234 c35 -29 73 -30 104 -4 13 10 22 20 19 20 -3 1 -38 2 -78
4 l-73 3 28 -23z"/>
<path d="M2300 2757 c0 -14 52 -119 57 -114 2 3 -9 31 -26 63 -16 33 -30 55
-31 51z"/>
<path d="M3243 4665 c0 -8 4 -12 9 -9 5 3 6 10 3 15 -9 13 -12 11 -12 -6z"/>
<path d="M1920 3576 c0 -11 30 -66 36 -66 2 0 -3 15 -12 33 -19 36 -24 44 -24
33z"/>
<path d="M2007 3440 c18 -19 34 -32 36 -29 2 2 -12 17 -32 33 l-36 30 32 -34z"/>
<path d="M2891 206 c11 -12 69 -25 69 -15 0 5 -6 9 -12 9 -7 0 -24 3 -38 7
-14 3 -22 3 -19 -1z"/>
<path d="M2840 93 c0 -4 65 -33 75 -33 3 0 5 4 5 8 0 4 -18 13 -40 19 -22 5
-40 8 -40 6z"/>
</g>
</svg>
