<?xml version="1.0" standalone="no"?>
<!DOCTYPE svg PUBLIC "-//W3C//DTD SVG 20010904//EN"
 "http://www.w3.org/TR/2001/REC-SVG-20010904/DTD/svg10.dtd">
<svg version="1.0" xmlns="http://www.w3.org/2000/svg"
 width="554.000000pt" height="554.000000pt" viewBox="0 0 554.000000 554.000000"
 preserveAspectRatio="xMidYMid meet">

<g transform="translate(0.000000,554.000000) scale(0.100000,-0.100000)"
fill="#000000" stroke="none">
<path d="M0 2770 l0 -2770 2770 0 2770 0 0 2770 0 2770 -2770 0 -2770 0 0
-2770z m4113 909 c15 -11 31 -37 37 -57 8 -25 10 -294 8 -862 -3 -776 -4 -828
-21 -853 -10 -16 -32 -37 -50 -47 -31 -19 -61 -20 -1337 -20 -1450 0 -1339 -6
-1360 68 -6 24 -10 326 -10 865 0 890 -1 874 51 911 21 15 139 16 1340 16
1313 0 1316 0 1342 -21z"/>
<path d="M1780 3496 c0 -3 57 -45 128 -94 70 -49 291 -205 492 -347 201 -142
370 -259 375 -261 9 -4 871 608 960 680 l30 25 -992 0 c-546 1 -993 -1 -993
-3z"/>
<path d="M1590 2814 l0 -568 38 35 c20 20 107 98 192 175 85 76 160 143 166
149 6 5 79 71 162 145 82 74 148 138 146 142 -2 4 -127 91 -277 194 -149 103
-307 212 -349 242 l-78 54 0 -568z"/>
<path d="M3625 3148 c-176 -126 -329 -234 -340 -242 -22 -15 -43 7 270 -276
94 -85 220 -199 280 -255 l110 -100 3 278 c1 152 1 400 0 550 l-3 273 -320
-228z"/>
<path d="M2955 2665 c-69 -58 -137 -108 -151 -111 -49 -12 -67 -1 -266 166
-26 22 -51 40 -57 40 -8 0 -709 -608 -786 -681 -19 -19 2 -19 1085 -19 l1104
0 -54 48 c-30 26 -82 72 -115 102 -136 124 -599 536 -616 547 -15 11 -33 0
-144 -92z"/>
</g>
</svg>
