<?xml version="1.0" standalone="no"?>
<!DOCTYPE svg PUBLIC "-//W3C//DTD SVG 20010904//EN"
 "http://www.w3.org/TR/2001/REC-SVG-20010904/DTD/svg10.dtd">
<svg version="1.0" xmlns="http://www.w3.org/2000/svg"
 width="554.000000pt" height="554.000000pt" viewBox="0 0 554.000000 554.000000"
 preserveAspectRatio="xMidYMid meet">

<g transform="translate(0.000000,554.000000) scale(0.100000,-0.100000)"
fill="#000000" stroke="none">
<path d="M0 2770 l0 -2770 2770 0 2770 0 0 2770 0 2770 -2770 0 -2770 0 0
-2770z m2991 1255 c534 -88 970 -523 1064 -1062 19 -111 19 -335 0 -449 -69
-401 -332 -755 -700 -943 -43 -23 -108 -50 -143 -62 -64 -21 -64 -21 -91 -2
l-26 20 -5 249 c-5 233 -7 252 -28 299 -12 27 -30 57 -39 67 -14 16 -13 17 8
22 211 40 323 88 408 173 95 96 145 221 157 398 11 151 -20 273 -96 379 -29
40 -30 45 -21 87 15 64 13 150 -5 231 l-16 71 -64 -6 c-64 -5 -195 -58 -264
-107 l-28 -20 -123 21 c-144 25 -330 22 -461 -5 l-77 -17 -78 45 c-94 55 -181
86 -239 86 l-43 0 -18 -57 c-19 -66 -22 -212 -4 -256 10 -26 8 -33 -18 -65
-73 -94 -101 -185 -101 -337 0 -135 19 -228 64 -320 81 -164 232 -257 489
-300 34 -5 36 -8 22 -21 -21 -21 -45 -69 -59 -118 -10 -37 -17 -43 -61 -58
-138 -47 -241 -4 -345 144 -37 53 -86 90 -143 108 -41 13 -97 5 -97 -14 0 -6
31 -40 69 -74 57 -50 78 -78 112 -147 45 -92 85 -135 158 -169 39 -18 65 -21
169 -21 l122 0 0 -128 c0 -71 -4 -137 -10 -147 -23 -42 -95 -28 -250 50 -169
84 -355 241 -468 395 -328 446 -334 1077 -13 1525 298 417 784 618 1292 535z
m-1040 -1850 c-1 -15 -24 -12 -29 3 -3 9 2 13 12 10 10 -1 17 -7 17 -13z m57
-48 c2 -10 -3 -17 -12 -17 -18 0 -29 16 -21 31 9 14 29 6 33 -14z m52 -62 c10
-13 11 -18 1 -28 -10 -9 -15 -8 -26 7 -23 31 1 50 25 21z m74 -96 c-7 -12 -31
-11 -39 1 -4 6 -4 18 -1 27 6 14 8 14 26 -2 11 -10 17 -22 14 -26z m80 -25
c25 -10 19 -34 -8 -34 -27 0 -41 14 -31 30 7 12 17 12 39 4z m220 -13 c8 -13
-21 -34 -39 -27 -25 9 -18 36 9 36 14 0 27 -4 30 -9z m-101 -16 c-1 -5 -8 -14
-17 -20 -18 -11 -42 7 -31 25 8 13 51 9 48 -5z"/>
</g>
</svg>
